# xmcd
#
# Track frame offsets:
#	150
#	14767
#	26505
#	42657
#	56515
#	69125
#	81725
#	98815
#	112502
#	127460
#
# Disc length: 1884 seconds
#
# Revision: 0
# Processed by: cddbd v1.5.1PL0 Copyright (c) Steve Scherf et al.
# Submitted via: audiograbber 1.82.01
#
DISCID=88075a0a
DTITLE=Grupo Rodeio - Clareando o Dia
DYEAR=1998
DGENRE=Gaúcho
TTITLE0=Clareando o Dia
TTITLE1=No Galope da Vanera
TTITLE2=Meu Medo
TTITLE3=Meus Pensamentos 
TTITLE4=Carnavalito
TTITLE5=Pra Nós Dois Dançar
TTITLE6=Armando Bochincho
TTITLE7=Passos No Coração
TTITLE8=Pra Mode Poder Casar
TTITLE9=Entenda
EXTD=
EXTT0=
EXTT1=
EXTT2=
EXTT3=
EXTT4=
EXTT5=
EXTT6=
EXTT7=
EXTT8=
EXTT9=
PLAYORDER=
